<?xml version="1.0" standalone="no"?><!DOCTYPE svg PUBLIC "-//W3C//DTD SVG 1.1//EN" "http://www.w3.org/Graphics/SVG/1.1/DTD/svg11.dtd"><svg t="1709810819178" class="icon" viewBox="0 0 1024 1024" version="1.1" xmlns="http://www.w3.org/2000/svg" p-id="5538" width="48" height="48" xmlns:xlink="http://www.w3.org/1999/xlink"><path d="M917.333333 262.4v499.2c0 8.533333-6.4 14.933333-14.933333 12.8l-72.533333-12.8C725.333333 742.4 618.666667 731.733333 512 731.733333s-213.333333 10.666667-315.733333 27.733334l-72.533334 12.8c-10.666667 2.133333-17.066667-2.133333-17.066666-10.666667V262.4c0-8.533333 6.4-14.933333 14.933333-12.8l72.533333 12.8c104.533333 19.2 211.2 29.866667 317.866667 29.866667s213.333333-10.666667 315.733333-27.733334l72.533334-12.8c10.666667-2.133333 17.066667 2.133333 17.066666 10.666667z m21.333334-83.2h-8.533334l-113.066666 21.333333c-100.266667 19.2-202.666667 27.733333-305.066667 27.733334s-204.8-8.533333-305.066667-27.733334l-113.066666-21.333333H85.333333c-23.466667 0-42.666667 19.2-42.666666 42.666667v580.266666c0 23.466667 19.2 42.666667 42.666666 42.666667h8.533334l113.066666-21.333333c100.266667-19.2 202.666667-27.733333 305.066667-27.733334s204.8 8.533333 305.066667 27.733334l113.066666 21.333333h8.533334c23.466667 0 42.666667-19.2 42.666666-42.666667V221.866667c0-23.466667-19.2-42.666667-42.666666-42.666667z" p-id="5539"></path><path d="M612.266667 480h-17.066667v36.266667h17.066667c10.666667 0 17.066667-6.4 17.066666-17.066667 0-12.8-6.4-19.2-17.066666-19.2zM424.533333 480h-14.933333V554.666667h17.066667c21.333333 0 32-12.8 32-36.266667-2.133333-25.6-12.8-38.4-34.133334-38.4z" p-id="5540"></path><path d="M840.533333 322.133333c-108.8 19.2-219.733333 29.866667-328.533333 29.866667S292.266667 341.333333 183.466667 322.133333L170.666667 320v375.466667l12.8-2.133334c108.8-19.2 217.6-29.866667 328.533333-29.866666 108.8 0 219.733333 10.666667 328.533333 29.866666l12.8 2.133334V320l-12.8 2.133333z m-416 256h-29.866666c-8.533333 0-12.8-4.266667-12.8-12.8V469.333333c0-8.533333 4.266667-12.8 12.8-12.8h27.733333c38.4 2.133333 59.733333 21.333333 59.733333 61.866667 0 38.4-19.2 57.6-57.6 59.733333z m128 0h-42.666666c-8.533333 0-12.8-4.266667-12.8-14.933333V469.333333c0-8.533333 4.266667-12.8 12.8-12.8 8.533333 0 12.8 4.266667 12.8 12.8v85.333334h29.866666c8.533333 0 12.8 4.266667 12.8 12.8-2.133333 6.4-6.4 10.666667-12.8 10.666666z m59.733334-40.533333h-19.2v27.733333c0 8.533333-4.266667 12.8-12.8 12.8s-12.8-4.266667-12.8-12.8V469.333333c0-8.533333 4.266667-12.8 12.8-12.8h29.866666c27.733333 2.133333 40.533333 14.933333 42.666667 40.533334 0 25.6-12.8 38.4-40.533333 40.533333z" p-id="5541"></path></svg>